<mxfile host="app.diagrams.net" agent="Mozilla/5.0 (Windows NT 10.0; Win64; x64) AppleWebKit/537.36 (KHTML, like Gecko) Chrome/126.0.0.0 Safari/537.36 Edg/126.0.0.0" version="24.7.4">
  <diagram name="Page-1" id="goZDsXmP7fgb-FEeSVaA">
    <mxGraphModel dx="1426" dy="759" grid="1" gridSize="10" guides="1" tooltips="1" connect="1" arrows="1" fold="1" page="1" pageScale="1" pageWidth="850" pageHeight="1100" math="0" shadow="0">
      <root>
        <mxCell id="0" />
        <mxCell id="1" parent="0" />
        <mxCell id="lcn9J9Vuxmau25zB3vVw-4" style="edgeStyle=orthogonalEdgeStyle;rounded=0;orthogonalLoop=1;jettySize=auto;html=1;entryX=0;entryY=0.5;entryDx=0;entryDy=0;" edge="1" parent="1" source="lcn9J9Vuxmau25zB3vVw-1" target="lcn9J9Vuxmau25zB3vVw-3">
          <mxGeometry relative="1" as="geometry" />
        </mxCell>
        <mxCell id="lcn9J9Vuxmau25zB3vVw-1" value="product" style="sketch=0;points=[[0,0,0],[0.25,0,0],[0.5,0,0],[0.75,0,0],[1,0,0],[0,1,0],[0.25,1,0],[0.5,1,0],[0.75,1,0],[1,1,0],[0,0.25,0],[0,0.5,0],[0,0.75,0],[1,0.25,0],[1,0.5,0],[1,0.75,0]];outlineConnect=0;fontColor=#232F3E;fillColor=#7AA116;strokeColor=#ffffff;dashed=0;verticalLabelPosition=bottom;verticalAlign=top;align=center;html=1;fontSize=12;fontStyle=0;aspect=fixed;shape=mxgraph.aws4.resourceIcon;resIcon=mxgraph.aws4.s3;" vertex="1" parent="1">
          <mxGeometry x="40" y="310" width="78" height="78" as="geometry" />
        </mxCell>
        <mxCell id="lcn9J9Vuxmau25zB3vVw-6" style="edgeStyle=orthogonalEdgeStyle;rounded=0;orthogonalLoop=1;jettySize=auto;html=1;entryX=0;entryY=0.5;entryDx=0;entryDy=0;" edge="1" parent="1" source="lcn9J9Vuxmau25zB3vVw-2" target="lcn9J9Vuxmau25zB3vVw-3">
          <mxGeometry relative="1" as="geometry" />
        </mxCell>
        <mxCell id="lcn9J9Vuxmau25zB3vVw-2" value="review" style="sketch=0;points=[[0,0,0],[0.25,0,0],[0.5,0,0],[0.75,0,0],[1,0,0],[0,1,0],[0.25,1,0],[0.5,1,0],[0.75,1,0],[1,1,0],[0,0.25,0],[0,0.5,0],[0,0.75,0],[1,0.25,0],[1,0.5,0],[1,0.75,0]];outlineConnect=0;fontColor=#232F3E;fillColor=#7AA116;strokeColor=#ffffff;dashed=0;verticalLabelPosition=bottom;verticalAlign=top;align=center;html=1;fontSize=12;fontStyle=0;aspect=fixed;shape=mxgraph.aws4.resourceIcon;resIcon=mxgraph.aws4.s3;" vertex="1" parent="1">
          <mxGeometry x="40" y="420" width="78" height="78" as="geometry" />
        </mxCell>
        <mxCell id="lcn9J9Vuxmau25zB3vVw-3" value="pandas etl merge" style="shape=process;whiteSpace=wrap;html=1;backgroundOutline=1;" vertex="1" parent="1">
          <mxGeometry x="170" y="370" width="120" height="60" as="geometry" />
        </mxCell>
        <mxCell id="lcn9J9Vuxmau25zB3vVw-10" style="edgeStyle=orthogonalEdgeStyle;rounded=0;orthogonalLoop=1;jettySize=auto;html=1;" edge="1" parent="1" source="lcn9J9Vuxmau25zB3vVw-7" target="lcn9J9Vuxmau25zB3vVw-9">
          <mxGeometry relative="1" as="geometry" />
        </mxCell>
        <mxCell id="lcn9J9Vuxmau25zB3vVw-7" value="aws comprhend&lt;div&gt;(sentiment analysis)&lt;/div&gt;" style="sketch=0;points=[[0,0,0],[0.25,0,0],[0.5,0,0],[0.75,0,0],[1,0,0],[0,1,0],[0.25,1,0],[0.5,1,0],[0.75,1,0],[1,1,0],[0,0.25,0],[0,0.5,0],[0,0.75,0],[1,0.25,0],[1,0.5,0],[1,0.75,0]];outlineConnect=0;fontColor=#232F3E;fillColor=#01A88D;strokeColor=#ffffff;dashed=0;verticalLabelPosition=bottom;verticalAlign=top;align=center;html=1;fontSize=12;fontStyle=0;aspect=fixed;shape=mxgraph.aws4.resourceIcon;resIcon=mxgraph.aws4.comprehend;" vertex="1" parent="1">
          <mxGeometry x="347" y="361" width="78" height="78" as="geometry" />
        </mxCell>
        <mxCell id="lcn9J9Vuxmau25zB3vVw-8" style="edgeStyle=orthogonalEdgeStyle;rounded=0;orthogonalLoop=1;jettySize=auto;html=1;entryX=0;entryY=0.5;entryDx=0;entryDy=0;entryPerimeter=0;" edge="1" parent="1" source="lcn9J9Vuxmau25zB3vVw-3" target="lcn9J9Vuxmau25zB3vVw-7">
          <mxGeometry relative="1" as="geometry" />
        </mxCell>
        <mxCell id="lcn9J9Vuxmau25zB3vVw-9" value="sentiment data" style="sketch=0;points=[[0,0,0],[0.25,0,0],[0.5,0,0],[0.75,0,0],[1,0,0],[0,1,0],[0.25,1,0],[0.5,1,0],[0.75,1,0],[1,1,0],[0,0.25,0],[0,0.5,0],[0,0.75,0],[1,0.25,0],[1,0.5,0],[1,0.75,0]];outlineConnect=0;fontColor=#232F3E;fillColor=#7AA116;strokeColor=#ffffff;dashed=0;verticalLabelPosition=bottom;verticalAlign=top;align=center;html=1;fontSize=12;fontStyle=0;aspect=fixed;shape=mxgraph.aws4.resourceIcon;resIcon=mxgraph.aws4.s3;" vertex="1" parent="1">
          <mxGeometry x="510" y="361" width="78" height="78" as="geometry" />
        </mxCell>
        <mxCell id="lcn9J9Vuxmau25zB3vVw-13" style="edgeStyle=orthogonalEdgeStyle;rounded=0;orthogonalLoop=1;jettySize=auto;html=1;" edge="1" parent="1" source="lcn9J9Vuxmau25zB3vVw-11" target="lcn9J9Vuxmau25zB3vVw-12">
          <mxGeometry relative="1" as="geometry" />
        </mxCell>
        <mxCell id="lcn9J9Vuxmau25zB3vVw-11" value="plates" style="sketch=0;points=[[0,0,0],[0.25,0,0],[0.5,0,0],[0.75,0,0],[1,0,0],[0,1,0],[0.25,1,0],[0.5,1,0],[0.75,1,0],[1,1,0],[0,0.25,0],[0,0.5,0],[0,0.75,0],[1,0.25,0],[1,0.5,0],[1,0.75,0]];outlineConnect=0;fontColor=#232F3E;fillColor=#7AA116;strokeColor=#ffffff;dashed=0;verticalLabelPosition=bottom;verticalAlign=top;align=center;html=1;fontSize=12;fontStyle=0;aspect=fixed;shape=mxgraph.aws4.resourceIcon;resIcon=mxgraph.aws4.s3;" vertex="1" parent="1">
          <mxGeometry x="40" y="540" width="78" height="78" as="geometry" />
        </mxCell>
        <mxCell id="lcn9J9Vuxmau25zB3vVw-15" style="edgeStyle=orthogonalEdgeStyle;rounded=0;orthogonalLoop=1;jettySize=auto;html=1;entryX=0;entryY=0.5;entryDx=0;entryDy=0;" edge="1" parent="1" source="lcn9J9Vuxmau25zB3vVw-12" target="lcn9J9Vuxmau25zB3vVw-14">
          <mxGeometry relative="1" as="geometry" />
        </mxCell>
        <mxCell id="lcn9J9Vuxmau25zB3vVw-12" value="aws rekognition" style="sketch=0;points=[[0,0,0],[0.25,0,0],[0.5,0,0],[0.75,0,0],[1,0,0],[0,1,0],[0.25,1,0],[0.5,1,0],[0.75,1,0],[1,1,0],[0,0.25,0],[0,0.5,0],[0,0.75,0],[1,0.25,0],[1,0.5,0],[1,0.75,0]];outlineConnect=0;fontColor=#232F3E;fillColor=#01A88D;strokeColor=#ffffff;dashed=0;verticalLabelPosition=bottom;verticalAlign=top;align=center;html=1;fontSize=12;fontStyle=0;aspect=fixed;shape=mxgraph.aws4.resourceIcon;resIcon=mxgraph.aws4.rekognition_2;" vertex="1" parent="1">
          <mxGeometry x="180" y="540" width="78" height="78" as="geometry" />
        </mxCell>
        <mxCell id="lcn9J9Vuxmau25zB3vVw-14" value="pandas &quot;etl&quot;" style="shape=process;whiteSpace=wrap;html=1;backgroundOutline=1;" vertex="1" parent="1">
          <mxGeometry x="305" y="549" width="120" height="60" as="geometry" />
        </mxCell>
        <mxCell id="lcn9J9Vuxmau25zB3vVw-16" value="state_plate_data" style="sketch=0;points=[[0,0,0],[0.25,0,0],[0.5,0,0],[0.75,0,0],[1,0,0],[0,1,0],[0.25,1,0],[0.5,1,0],[0.75,1,0],[1,1,0],[0,0.25,0],[0,0.5,0],[0,0.75,0],[1,0.25,0],[1,0.5,0],[1,0.75,0]];outlineConnect=0;fontColor=#232F3E;fillColor=#7AA116;strokeColor=#ffffff;dashed=0;verticalLabelPosition=bottom;verticalAlign=top;align=center;html=1;fontSize=12;fontStyle=0;aspect=fixed;shape=mxgraph.aws4.resourceIcon;resIcon=mxgraph.aws4.s3;" vertex="1" parent="1">
          <mxGeometry x="490" y="540" width="78" height="78" as="geometry" />
        </mxCell>
        <mxCell id="lcn9J9Vuxmau25zB3vVw-17" style="edgeStyle=orthogonalEdgeStyle;rounded=0;orthogonalLoop=1;jettySize=auto;html=1;entryX=0;entryY=0.5;entryDx=0;entryDy=0;entryPerimeter=0;" edge="1" parent="1" source="lcn9J9Vuxmau25zB3vVw-14" target="lcn9J9Vuxmau25zB3vVw-16">
          <mxGeometry relative="1" as="geometry" />
        </mxCell>
      </root>
    </mxGraphModel>
  </diagram>
</mxfile>
